<?xml version="1.0" standalone="no"?>
<!DOCTYPE svg PUBLIC "-//W3C//DTD SVG 20010904//EN"
 "http://www.w3.org/TR/2001/REC-SVG-20010904/DTD/svg10.dtd">
<svg version="1.0" xmlns="http://www.w3.org/2000/svg"
 width="197.000000pt" height="197.000000pt" viewBox="0 0 197.000000 197.000000"
 preserveAspectRatio="xMidYMid meet">
<metadata>
Created by potrace 1.11, written by Peter Selinger 2001-2013
</metadata>
<g transform="translate(0.000000,197.000000) scale(0.100000,-0.100000)"
fill="#000000" stroke="none">
<path d="M870 1963 c-335 -47 -616 -246 -761 -538 -187 -377 -117 -830 172
-1124 152 -155 307 -237 539 -287 57 -12 250 -12 325 1 482 79 832 497 824
985 -9 530 -433 956 -959 964 -63 1 -126 1 -140 -1z m295 -288 c315 -84 533
-367 533 -690 0 -113 -21 -202 -73 -310 -42 -86 -55 -105 -129 -186 -83 -92
-236 -177 -363 -204 -61 -13 -220 -13 -283 1 -349 74 -590 379 -575 726 8 184
92 367 224 491 141 132 310 197 501 191 58 -1 132 -10 165 -19z"/>
<path d="M891 1079 c-176 -176 -321 -323 -321 -327 0 -4 42 -49 93 -100 l92
-92 328 328 328 328 -91 92 c-51 51 -95 92 -100 92 -4 0 -152 -144 -329 -321z"/>
</g>
</svg>
